<svg xmlns="http://www.w3.org/2000/svg" width="48" height="48" fill="none" id="quora">
  <path fill="#B92B27" d="M0 24C0 10.745 10.745 0 24 0s24 10.745 24 24-10.745 24-24 24S0 37.255 0 24Z"></path>
  <path fill="#fff" fill-rule="evenodd" d="M22.65 35.497c1.141 0 2.294-.161 3.38-.451l-.004.002c1.293 2.216 3.02 4.108 6.28 4.108 5.389 0 5.985-4.963 5.875-6.159h-1.929c-.1.898-.698 2.04-2.176 2.04-1.356 0-2.33-.942-3.273-2.36 2.928-2.267 4.941-5.775 4.941-10.092 0-7.761-6.39-12.985-13.096-12.985C16.054 9.6 9.6 14.864 9.6 22.585c0 7.651 6.456 12.912 13.05 12.912Zm-2.416-6.903c2.344 0 3.544 2.037 4.568 4.05-.654.193-1.367.278-2.154.278-4.95 0-7.093-3.495-7.093-10.337 0-6.878 2.143-10.41 7.093-10.41 5.024 0 7.174 3.532 7.174 10.41 0 2.754-.358 4.978-1.115 6.622-1.279-1.925-2.887-3.44-6.022-3.44-2.015 0-3.583.662-4.551 1.497l.794 1.588c.41-.184.859-.258 1.306-.258Z" clip-rule="evenodd"></path>
</svg>
